#N canvas 273 220 265 385 10;
#X declare -stdpath Fraise;
#X obj 21 38 pied/pied 0 41424;
#X obj 20 13 declare -stdpath Fraise;
#N canvas 591 112 576 597 moteurs 0;
#X obj 17 331 fruit/receive fruit1;
#X msg 408 430 L\$1;
#X obj 408 407 tgl 15 0 empty empty set_LED 18 7 0 10 -4034 -1 -1 0
1;
#X obj 8 6 dcmotor/motor fruit1 120 motorA;
#X obj 8 162 dcmotor/motor fruit1 121 motorB;
#X msg 208 364 c 120 c 4 i \$1;
#X obj 211 340 hsl 128 15 -1023 1023 0 0 empty empty PWM_rotation -2
-8 0 10 -4034 -1 -1 6350 1;
#X obj 231 404 hsl 128 15 -1023 1023 0 0 empty empty PWM_translation
-2 -8 0 10 -257985 -1 -1 6350 1;
#X msg 228 428 c 121 c 4 i \$1;
#X msg 171 403 0;
#X floatatom 24 376 5 0 0 0 - - -;
#X floatatom 60 397 5 0 0 3 position - -;
#X msg 357 437 WRITE;
#X obj 490 408 tgl 15 0 empty empty sendstatus 18 7 0 10 -4034 -1 -1
0 1;
#X msg 490 431 s\$1;
#X msg 454 431 U;
#X obj 228 465 fruit/send fruit1, f 22;
#X obj 32 351 route P r;
#X msg 160 338 STOP!;
#N canvas 1 81 450 300 tests 0;
#X obj 52 65 bng 50 250 50 0 empty empty empty 17 7 0 10 -262144 -1
-1;
#X obj 52 120 t b b;
#X obj 52 141 timer;
#X floatatom 52 162 7 0 0 0 - - -;
#X floatatom 54 206 5 0 0 0 - - -;
#X text 169 79 reset ramp pos;
#X obj 121 64 t b b;
#X obj 120 41 bng 15 250 50 0 empty empty empty 17 7 0 10 -262144 -1
-1;
#X obj 287 133 timer;
#X floatatom 287 154 7 0 0 0 - - -;
#X msg 164 118 c 200 c 11 i 0;
#X obj 52 183 mavg 500;
#X obj 149 144 fruit/send fruit1;
#X obj 121 201 s fruit1-motorB-ramp-params;
#X msg 149 93 c 121 c 7 i 0;
#X obj 285 100 sel 0 1;
#X obj 287 79 tgl 15 0 empty empty empty 17 7 0 10 -262144 -1 -1 0
1;
#X msg 121 178 dest 7000;
#X connect 0 0 1 0;
#X connect 1 0 2 0;
#X connect 1 1 2 1;
#X connect 2 0 3 0;
#X connect 3 0 11 0;
#X connect 6 0 8 0;
#X connect 6 0 17 0;
#X connect 6 1 14 0;
#X connect 7 0 0 0;
#X connect 8 0 9 0;
#X connect 10 0 12 0;
#X connect 11 0 4 0;
#X connect 14 0 12 0;
#X connect 15 0 8 0;
#X connect 15 1 8 1;
#X connect 17 0 13 0;
#X restore 439 340 pd tests;
#X text 355 423 eeprom;
#X floatatom 112 398 5 0 0 3 state - -;
#X obj 60 376 unpack f f f, f 16;
#X floatatom 144 450 5 0 0 0 rot_homed - -;
#X msg 403 543 c 120 c 3 i \$1;
#X floatatom 412 511 5 0 0 0 - - -;
#X obj 410 485 * 100;
#X floatatom 420 463 5 0 0 0 - - -;
#X text 472 480 1000=0.5tr/mn;
#X obj 17 504 analog/parse;
#X obj 17 525 route 0 1;
#X floatatom 17 546 5 0 0 0 - - -;
#X floatatom 56 548 5 0 0 0 - - -;
#X obj 119 517 print;
#X connect 0 0 17 0;
#X connect 1 0 16 1;
#X connect 2 0 1 0;
#X connect 5 0 16 0;
#X connect 6 0 5 0;
#X connect 7 0 8 0;
#X connect 8 0 16 0;
#X connect 9 0 6 0;
#X connect 9 0 7 0;
#X connect 12 0 16 1;
#X connect 13 0 14 0;
#X connect 14 0 16 1;
#X connect 15 0 16 1;
#X connect 17 0 10 0;
#X connect 17 1 22 0;
#X connect 17 2 29 0;
#X connect 18 0 9 0;
#X connect 22 0 11 0;
#X connect 22 1 21 0;
#X connect 22 2 23 0;
#X connect 24 0 16 0;
#X connect 25 0 24 0;
#X connect 26 0 25 0;
#X connect 27 0 26 0;
#X connect 29 0 30 0;
#X connect 30 0 31 0;
#X connect 30 1 32 0;
#X restore 146 194 pd moteurs;
#N canvas 1 81 508 300 control 0;
#X obj 107 44 fruit/receive fruitCtl;
#X obj 107 65 analog/parse;
#X obj 107 86 route 0;
#X floatatom 107 107 5 0 0 0 - - -;
#X obj 129 154 / 8;
#X floatatom 129 175 5 0 0 0 - - -;
#X obj 325 215 fruit/send fruitCtl;
#X msg 344 148 Q\$1;
#X obj 344 126 tgl 15 0 empty empty empty 17 7 0 10 -262144 -1 -1 0
1;
#X obj 178 105 route s;
#X obj 178 126 unpack f f f;
#X floatatom 178 147 5 0 0 0 - - -;
#X floatatom 213 148 5 0 0 0 - - -;
#X floatatom 254 149 5 0 0 0 - - -;
#X msg 276 102 L\$1;
#X obj 280 69 tgl 15 0 empty empty empty 17 7 0 10 -262144 -1 -1 0
1;
#X msg 411 83 c 1 c \$1;
#X floatatom 406 47 5 0 15 2 brightness - -;
#X connect 0 0 1 0;
#X connect 0 0 9 0;
#X connect 1 0 2 0;
#X connect 2 0 3 0;
#X connect 3 0 4 0;
#X connect 4 0 5 0;
#X connect 7 0 6 1;
#X connect 8 0 7 0;
#X connect 9 0 10 0;
#X connect 10 0 11 0;
#X connect 10 1 12 0;
#X connect 10 2 13 0;
#X connect 14 0 6 1;
#X connect 15 0 14 0;
#X connect 16 0 6 0;
#X connect 17 0 16 0;
#X restore 154 270 pd control;
#X obj 19 141 fruit/fruit 1 fruit1 1 fwMoteur 1;
#X obj 20 221 fruit/fruit 1 fruitCtl 2 fwControl 1;
#X obj 23 347 fruit/send fruitCtl;
#X msg 134 325 Q\$1;
#X obj 134 303 tgl 15 0 empty empty empty 17 7 0 10 -262144 -1 -1 0
1;
#X msg 23 326 c 1 c \$1;
#X floatatom 23 305 5 0 15 2 brightness - -;
#X connect 7 0 6 1;
#X connect 8 0 7 0;
#X connect 9 0 6 0;
#X connect 10 0 9 0;
